<svg width="30" height="26" viewBox="0 0 30 26" fill="none" xmlns="http://www.w3.org/2000/svg">
<path fill-rule="evenodd" clip-rule="evenodd" d="M15 12C13.3431 12 12 13.3431 12 15V17.4286V21C12 21.5523 11.5523 22 11 22C10.4477 22 10 21.5523 10 21V17.4286V15L10.0001 14.9645C9.83678 14.9879 9.6698 15 9.5 15C9.38994 15 9.28108 14.9949 9.17361 14.985C9.11723 14.9949 9.05921 15 9 15H8.57143C7.70355 15 7 15.7036 7 16.5714V19C7 19.5523 6.55228 20 6 20C5.44772 20 5 19.5523 5 19V16.5714C5 15.3004 5.66396 14.1845 6.66396 13.5515C6.24626 12.9751 6 12.2663 6 11.5C6 9.567 7.567 8 9.5 8C10.0425 8 10.5562 8.12344 11.0146 8.34378C11.0049 8.23047 11 8.11581 11 8C11 5.79086 12.7909 4 15 4C17.2091 4 19 5.79086 19 8C19 8.11581 18.9951 8.23047 18.9854 8.34378C19.4438 8.12345 19.9575 8 20.5 8C22.433 8 24 9.567 24 11.5C24 12.2663 23.7537 12.9751 23.336 13.5515C24.336 14.1845 25 15.3004 25 16.5714V19C25 19.5523 24.5523 20 24 20C23.4477 20 23 19.5523 23 19V16.5714C23 15.7036 22.2964 15 21.4286 15H21C20.9408 15 20.8828 14.9949 20.8264 14.985C20.7189 14.9949 20.6101 15 20.5 15C20.3302 15 20.1632 14.9879 19.9999 14.9645L20 15V17.4286V21C20 21.5523 19.5523 22 19 22C18.4477 22 18 21.5523 18 21V17.4286V15C18 13.3431 16.6569 12 15 12ZM15 10C13.8954 10 13 9.10457 13 8C13 6.89543 13.8954 6 15 6C16.1046 6 17 6.89543 17 8C17 9.10457 16.1046 10 15 10ZM9.5 10C8.67157 10 8 10.6716 8 11.5C8 12.3284 8.67157 13 9.5 13C10.3284 13 11 12.3284 11 11.5C11 10.6716 10.3284 10 9.5 10ZM20.5 10C19.6716 10 19 10.6716 19 11.5C19 12.3284 19.6716 13 20.5 13C21.3284 13 22 12.3284 22 11.5C22 10.6716 21.3284 10 20.5 10Z" fill="#9696BB"/>
</svg>
