<svg width="30" height="26" viewBox="0 0 30 26" fill="none" xmlns="http://www.w3.org/2000/svg">

<path fill-rule="evenodd" clip-rule="evenodd" d="M7.5 5C7.22349 5 7 5.2238 7 5.49958V13.2286V15V17V18C7 19.6569 8.34315 21 10 21C11.849 21 13.3478 19.5011 13.3478 17.6522V17.0495C13.3478 16.4699 13.8177 16 14.3973 16H18V6C18 5.44772 17.5523 5 17 5H7.5ZM5 13.2286V15V17V18V18.1143H5.00128C5.06203 20.8229 7.27677 23 10 23H19C22.2734 23 25 20.3488 25 17.0495C25 16.4699 24.5301 16 23.9505 16H20V6C20 4.34315 18.6569 3 17 3H7.5C6.11966 3 5 4.1185 5 5.49958V13.2286ZM14.1705 21H19C20.8636 21 22.4464 19.7155 22.8816 18H20H19.5H15.3367C15.264 19.132 14.8392 20.1681 14.1705 21ZM13.4998 7C13.4998 6.44772 13.052 6 12.4998 6C11.9475 6 11.4998 6.44772 11.4998 7V7.35632C10.3692 7.5179 9.5 8.49018 9.5 9.66546C9.5 10.9538 10.5444 11.9982 11.8327 11.9982H13.1691C13.3529 11.9982 13.5018 12.1472 13.5018 12.3309C13.5018 12.5147 13.3529 12.6637 13.1691 12.6637H10.8335C10.2812 12.6637 9.83349 13.1114 9.83349 13.6637C9.83349 14.2159 10.2812 14.6637 10.8335 14.6637H11.4998V14.9964C11.4998 15.5487 11.9475 15.9964 12.4998 15.9964C13.052 15.9964 13.4998 15.5487 13.4998 14.9964V14.6404C14.6315 14.4798 15.5018 13.507 15.5018 12.3309C15.5018 11.0426 14.4574 9.99819 13.1691 9.99819H11.8327C11.649 9.99819 11.5 9.84923 11.5 9.66546C11.5 9.4817 11.649 9.33273 11.8327 9.33273H14.1683C14.7206 9.33273 15.1683 8.88502 15.1683 8.33273C15.1683 7.78045 14.7206 7.33273 14.1683 7.33273H13.4998V7Z" fill="#9696BB"/>

</svg>
