<svg width="32" height="32" viewBox="0 0 32 32" fill="none" xmlns="http://www.w3.org/2000/svg">
<rect opacity="0.1" width="32" height="32" rx="7" fill="black"/>
<path fill-rule="evenodd" clip-rule="evenodd" d="M16 24.3333C11.3976 24.3333 7.66666 20.6024 7.66666 16C7.66666 11.3976 11.3976 7.66667 16 7.66667C20.6024 7.66667 24.3333 11.3976 24.3333 16C24.3333 20.6024 20.6024 24.3333 16 24.3333ZM16 9.33334C12.3181 9.33334 9.33333 12.3181 9.33333 16C9.33333 19.6819 12.3181 22.6667 16 22.6667C19.6819 22.6667 22.6667 19.6819 22.6667 16C22.6667 12.3181 19.6819 9.33334 16 9.33334ZM16 14.9583C16.5753 14.9583 17.0417 15.4247 17.0417 16V19.3333C17.0417 19.9086 16.5753 20.375 16 20.375C15.4247 20.375 14.9583 19.9086 14.9583 19.3333V16C14.9583 15.4247 15.4247 14.9583 16 14.9583ZM16 11.8333C15.4247 11.8333 14.9583 12.2997 14.9583 12.875C14.9583 13.4503 15.4247 13.9167 16 13.9167C16.5753 13.9167 17.0417 13.4503 17.0417 12.875C17.0417 12.2997 16.5753 11.8333 16 11.8333Z" fill="#F5F5FB"/>
</svg>
