<svg width="30" height="26" viewBox="0 0 30 26" fill="none" xmlns="http://www.w3.org/2000/svg">
<path fill-rule="evenodd" clip-rule="evenodd" d="M6 8C6 7.44772 6.44772 7 7 7H23C23.5523 7 24 7.44772 24 8C24 8.55228 23.5523 9 23 9H7C6.44772 9 6 8.55228 6 8ZM6 13C6 12.4477 6.44772 12 7 12H17C17.5523 12 18 12.4477 18 13C18 13.5523 17.5523 14 17 14H7C6.44772 14 6 13.5523 6 13ZM7 17C6.44772 17 6 17.4477 6 18C6 18.5523 6.44772 19 7 19H11C11.5523 19 12 18.5523 12 18C12 17.4477 11.5523 17 11 17H7Z" fill="#9696BB"/>
</svg>
