<svg width="40" height="40" viewBox="0 0 40 40" fill="none" xmlns="http://www.w3.org/2000/svg">
<rect width="40" height="40" rx="12" fill="#F5F5FB"/>
<path d="M36 19.2603V20.318C35.9866 20.3715 35.9732 20.4251 35.9732 20.4921C35.9197 20.9473 35.8795 21.4159 35.8126 21.8711C35.5715 23.3573 35.036 24.723 34.2326 25.995C33.0276 27.923 31.4075 29.3958 29.3724 30.4C28.1941 30.9891 26.9356 31.364 25.6234 31.5113C25.3289 31.5515 25.0477 31.5782 24.7531 31.605H13.5197C13.4661 31.5916 13.4126 31.5782 13.3456 31.5782C12.2075 31.5113 11.123 31.2435 10.0787 30.7883C7.8159 29.7975 6.12887 28.1908 5.03096 25.995C4.53556 25.0176 4.22762 23.9732 4.09372 22.8887C4.06695 22.6209 4.02678 22.3665 4 22.0987V21.0678C4.01339 21.0142 4.02678 20.9607 4.02678 20.8937C4.08033 19.9029 4.29456 18.9657 4.64268 18.0418C5.60669 15.5782 7.26695 13.7439 9.62343 12.5657C10.8552 11.9498 12.154 11.6285 13.5331 11.5481C14.2025 11.508 14.872 11.5481 15.528 11.6418C15.595 11.6552 15.6753 11.6285 15.7155 11.5749C16.6795 10.5975 17.764 9.80753 18.9958 9.20502C20.1874 8.6159 21.446 8.241 22.7715 8.09372C23.0795 8.05356 23.4008 8.02678 23.7088 8H24.6728C24.7397 8.01339 24.7933 8.02678 24.8603 8.02678C25.3423 8.08033 25.8109 8.1205 26.2929 8.20084C27.7657 8.44184 29.1314 8.97741 30.39 9.76736C32.318 10.9724 33.8042 12.5925 34.8218 14.6276C35.4109 15.8059 35.7858 17.0644 35.9331 18.3766C35.9331 18.6577 35.9732 18.9523 36 19.2603ZM18.1121 12.4318C18.1255 12.4586 18.1389 12.472 18.1389 12.472C18.795 12.7933 19.4377 13.1816 20.0134 13.61C20.0536 13.6368 20.1473 13.6234 20.1874 13.5967C21.8075 12.5657 23.5883 12.2042 25.4761 12.5389C27.3238 12.8736 28.8502 13.7975 30.0151 15.2837C31.3272 16.9573 31.8226 18.8586 31.4745 20.9741C31.2335 22.3933 30.6577 23.6653 29.7071 24.723C27.9531 26.6644 25.7439 27.4678 23.1464 27.1197C21.5531 26.9054 20.1741 26.2226 19.0226 25.0711C17.5498 23.5849 16.0904 22.1255 14.6176 20.6393C14.4167 20.4385 14.2025 20.2778 13.9213 20.251C13.4259 20.1841 12.9841 20.4385 12.7699 20.8803C12.5824 21.282 12.6092 21.7239 13.0109 22.1255C14.6444 23.7322 16.2644 25.3523 17.8979 26.959C18.1791 27.2402 18.4736 27.4946 18.795 27.7222C20 28.5925 21.3389 29.0745 22.7983 29.2619C23.9498 29.4092 25.0745 29.3824 26.2126 29.128C28.3548 28.646 30.149 27.5481 31.5414 25.8611C32.7063 24.4552 33.3891 22.8485 33.6435 21.0544C33.7908 20.0234 33.7506 18.9791 33.5498 17.9615C33.2285 16.3013 32.5188 14.8017 31.3941 13.5297C29.2385 11.1331 26.5339 10.0485 23.3071 10.2895C22.0619 10.3833 20.8971 10.7448 19.7858 11.3339C19.1833 11.6418 18.6209 12.0033 18.1121 12.4318ZM17.3222 29.3423C17.282 29.3021 17.2285 29.2619 17.1883 29.2218C16.5188 28.5925 15.836 27.9632 15.1933 27.3339C15.0594 27.2134 14.9523 27.1464 14.7649 27.1598C14.0954 27.1732 13.4126 27.1732 12.7699 27.0259C9.48954 26.2762 7.58828 22.7146 8.79331 19.5682C9.73054 17.0912 12.3682 15.5782 14.9791 16.0469C16.1573 16.2611 17.1615 16.7565 18.005 17.6268C19.036 18.6845 20.0803 19.7155 21.1247 20.7598C21.3657 21.0008 21.6335 21.108 21.9682 21.0678C22.3967 21.0008 22.7314 20.8 22.8787 20.3849C23.0259 19.9699 22.959 19.5816 22.651 19.2736C21.5531 18.1623 20.5088 17.051 19.3707 15.9799C17.1615 13.9314 14.5774 13.3155 11.7121 14.1992C7.85607 15.364 5.60669 19.3406 6.47699 23.2636C7.28033 26.8385 10.4134 29.3423 14.0686 29.3557C15.0996 29.3557 16.1038 29.3557 17.1347 29.3557C17.1883 29.3557 17.2418 29.3423 17.3222 29.3423Z" fill="#DA1F26"/>
</svg>
