<svg width="40" height="40" viewBox="0 0 40 40" fill="none" xmlns="http://www.w3.org/2000/svg">
<rect width="40" height="40" rx="12" fill="#F5F5FB"/>
<rect width="40" height="40" rx="12" fill="#F5F5FB"/>
<path fill-rule="evenodd" clip-rule="evenodd" d="M27.697 15.3503C29.0177 15.6584 30 16.823 30 18.2125V26.0579C30 27.6828 28.6569 29 27 29L13 29C11.3431 29 10 27.6828 10 26.058L10 20.1738L10 18.2125C10 16.5876 11.3431 15.2704 13 15.2704H13.4764L22.5207 11.2618C24.0305 10.5926 25.8076 11.2505 26.49 12.7311L26.9533 13.7365L27.5968 15.1328L27.697 15.3503ZM12 21.1545L12 26.058C12 26.5996 12.4477 27.0386 13 27.0386L27 27.0386C27.5523 27.0386 28 26.5996 28 26.0579V21.1545H12ZM28 19.1932H12V18.2125C12 17.6709 12.4477 17.2318 13 17.2318L27 17.2318C27.5523 17.2318 28 17.6709 28 18.2125V19.1932ZM25.4655 15.2704L25.1308 14.5442L24.6675 13.5389C24.44 13.0453 23.8477 12.8261 23.3444 13.0491L18.3327 15.2704L25.4655 15.2704ZM13 24.0966C13 23.555 13.4477 23.1159 14 23.1159H18C18.5523 23.1159 19 23.555 19 24.0966C19 24.6382 18.5523 25.0773 18 25.0773H14C13.4477 25.0773 13 24.6382 13 24.0966Z" fill="#5273E2"/>
</svg>
