<svg width="30" height="26" viewBox="0 0 30 26" fill="none" xmlns="http://www.w3.org/2000/svg">
<path fill-rule="evenodd" clip-rule="evenodd" d="M24 10.5577C24 9.0609 22.7943 7.83259 21.2584 7.70763L20.6224 5.93532C20.0695 4.39463 18.2812 3.60421 16.6908 4.19759L7.13569 7.76269C7.04025 7.7983 6.95378 7.84635 6.87753 7.90413C5.77675 8.32788 5 9.35631 5 10.5577V19.1394C5 20.7193 6.34315 22 8 22L21 22C22.6569 22 24 20.7193 24 19.1394V16.9773C24.5978 16.6475 25 16.0312 25 15.3253V13.4183C25 12.7124 24.5978 12.0961 24 11.7664V10.5577ZM22 11.5113V10.5577C22 10.0311 21.5523 9.60421 21 9.60421L8 9.60421C7.44772 9.60421 7 10.0311 7 10.5577L7 19.1394C7 19.666 7.44772 20.093 8 20.093L21 20.093C21.5523 20.093 22 19.666 22 19.1394V17.2324H21C19.3431 17.2324 18 15.9517 18 14.3718C18 12.792 19.3431 11.5113 21 11.5113H22ZM18.7301 6.55276L19.1408 7.69716L12.7999 7.69717L17.4196 5.97351C17.9497 5.77572 18.5458 6.03919 18.7301 6.55276ZM20 14.3718C20 13.8452 20.4477 13.4183 21 13.4183H23V15.3253H21C20.4477 15.3253 20 14.8984 20 14.3718Z" fill="#9696BB"/>
</svg>
