<svg width="290" height="175" viewBox="0 0 290 175" fill="none" xmlns="http://www.w3.org/2000/svg">
<mask id="mask0_2_314" style="mask-type:alpha" maskUnits="userSpaceOnUse" x="0" y="0" width="292" height="175">
<rect width="292" height="175" rx="14.6597" fill="black"/>
</mask>
<g mask="url(#mask0_2_314)">
<g filter="url(#filter0_d_2_314)">
<path d="M158.886 -38.1859C158.886 32.1283 101.939 89.1283 31.6928 89.1283C-38.5534 89.1283 -95.5 32.1283 -95.5 -38.1859C-95.5 -108.5 -38.5534 -165.5 31.6928 -165.5C101.939 -165.5 158.886 -108.5 158.886 -38.1859Z" stroke="#5A6368"/>
</g>
<g filter="url(#filter1_d_2_314)">
<path d="M277.77 203.361C277.77 267.35 225.946 319.223 162.019 319.223C98.092 319.223 46.2682 267.35 46.2682 203.361C46.2682 139.372 98.092 87.5 162.019 87.5C225.946 87.5 277.77 139.372 277.77 203.361Z" stroke="#5A6368"/>
</g>
</g>
<defs>
<filter id="filter0_d_2_314" x="-106.995" y="-171.497" width="277.375" height="277.618" filterUnits="userSpaceOnUse" color-interpolation-filters="sRGB">
<feFlood flood-opacity="0" result="BackgroundImageFix"/>
<feColorMatrix in="SourceAlpha" type="matrix" values="0 0 0 0 0 0 0 0 0 0 0 0 0 0 0 0 0 0 127 0" result="hardAlpha"/>
<feOffset dy="5.49738"/>
<feGaussianBlur stdDeviation="5.49738"/>
<feColorMatrix type="matrix" values="0 0 0 0 0.0941176 0 0 0 0 0.113725 0 0 0 0 0.12549 0 0 0 1 0"/>
<feBlend mode="normal" in2="BackgroundImageFix" result="effect1_dropShadow_2_314"/>
<feBlend mode="normal" in="SourceGraphic" in2="effect1_dropShadow_2_314" result="shape"/>
</filter>
<filter id="filter1_d_2_314" x="34.7734" y="81.5026" width="254.491" height="254.712" filterUnits="userSpaceOnUse" color-interpolation-filters="sRGB">
<feFlood flood-opacity="0" result="BackgroundImageFix"/>
<feColorMatrix in="SourceAlpha" type="matrix" values="0 0 0 0 0 0 0 0 0 0 0 0 0 0 0 0 0 0 127 0" result="hardAlpha"/>
<feOffset dy="5.49738"/>
<feGaussianBlur stdDeviation="5.49738"/>
<feColorMatrix type="matrix" values="0 0 0 0 0.0921875 0 0 0 0 0.113419 0 0 0 0 0.125 0 0 0 1 0"/>
<feBlend mode="normal" in2="BackgroundImageFix" result="effect1_dropShadow_2_314"/>
<feBlend mode="normal" in="SourceGraphic" in2="effect1_dropShadow_2_314" result="shape"/>
</filter>
</defs>
</svg>
