<svg width="24" height="24" viewBox="0 0 24 24" fill="none" xmlns="http://www.w3.org/2000/svg">
<path fill-rule="evenodd" clip-rule="evenodd" d="M10.0732 20.7216C10.6819 21.0815 11.4354 21.0932 12.055 20.7524L13.8731 19.7524C14.5122 19.4009 14.9093 18.7294 14.9093 18L14.9093 11.7086L20.3865 6.44161C20.9747 5.87597 21.1603 5.00969 20.8554 4.25274C20.5505 3.49579 19.8163 3 19.0002 3L5.00021 3C4.18416 3 3.44995 3.49579 3.14505 4.25274C2.84015 5.00969 3.02571 5.87597 3.61393 6.44161L9.09111 11.7086L9.09111 19C9.09111 19.7071 9.46451 20.3617 10.0732 20.7216ZM12.9093 18L11.0911 19L11.0911 11.2829C11.0911 11.1026 11.0425 10.9275 10.9526 10.775C10.9068 10.6974 10.8504 10.6257 10.7843 10.5621L5.00021 5L19.0002 5L13.2162 10.5621C13.15 10.6257 13.0936 10.6974 13.0478 10.775C12.958 10.9275 12.9093 11.1026 12.9093 11.2829L12.9093 18Z" fill="#54576F"/>
</svg>
